<?xml version="1.0" encoding="UTF-8" standalone="no"?>
<svg
   xmlns:dc="http://purl.org/dc/elements/1.1/"
   xmlns:cc="http://creativecommons.org/ns#"
   xmlns:rdf="http://www.w3.org/1999/02/22-rdf-syntax-ns#"
   xmlns:svg="http://www.w3.org/2000/svg"
   xmlns="http://www.w3.org/2000/svg"
   version="1.1"
   id="svg2"
   viewBox="0 0 481.43782 402.0383"
   height="113.46414mm"
   width="135.87245mm">
  <defs
     id="defs4" />
  <metadata
     id="metadata7">
    <rdf:RDF>
      <cc:Work
         rdf:about="">
        <dc:format>image/svg+xml</dc:format>
        <dc:type
           rdf:resource="http://purl.org/dc/dcmitype/StillImage" />
        <dc:title></dc:title>
      </cc:Work>
    </rdf:RDF>
  </metadata>
  <g
     transform="translate(-24.946547,-20.900501)"
     id="layer1">
    <text
       id="text8148"
       y="469.50418"
       x="173.74623"
       style="font-style:normal;font-variant:normal;font-weight:normal;font-stretch:normal;font-size:60px;line-height:125%;font-family:'URW Gothic L';-inkscape-font-specification:'URW Gothic L';letter-spacing:0px;word-spacing:0px;fill:#90ce56;fill-opacity:1;stroke:none;stroke-width:1px;stroke-linecap:butt;stroke-linejoin:miter;stroke-opacity:1"
       xml:space="preserve"><tspan
         style="font-style:normal;font-variant:normal;font-weight:normal;font-stretch:normal;font-family:'URW Gothic L';-inkscape-font-specification:'URW Gothic L';letter-spacing:-5.01000118px"
         y="469.50418"
         x="173.74623"
         id="tspan8150" /></text>
    <g
       transform="matrix(0.81681383,0,0,0.81681383,-49.320742,-29.670645)"
       id="g8240">
      <circle
         style="fill:#9091ff;fill-opacity:1;stroke:#000000;stroke-width:1.10881388;stroke-opacity:0"
         id="path8156-6"
         cx="572.2514"
         cy="169.99394"
         r="107.52684" />
      <path
         id="path8162-5"
         d="m 466.69246,275.37636 c 104.04974,9.01715 147.5828,-83.59492 197.56962,-139.4991 -122.49086,10.06468 -122.44589,74.25105 -197.56962,139.4991 z"
         style="fill:#9091ff;fill-opacity:1;fill-rule:evenodd;stroke:#000000;stroke-width:0.67763478px;stroke-linecap:butt;stroke-linejoin:miter;stroke-opacity:0" />
      <path
         id="path8164-2"
         d="M 480.24813,203.56676 C 584.29777,212.5839 627.83079,119.97191 677.81756,64.06778 555.32681,74.132446 555.3718,138.31877 480.24813,203.56676 Z"
         style="fill:#9091ff;fill-opacity:1;fill-rule:evenodd;stroke:#000000;stroke-width:0.67763412px;stroke-linecap:butt;stroke-linejoin:miter;stroke-opacity:0" />
      <g
         style="fill:#ffffff"
         id="g8160-3-6"
         transform="matrix(0.48308852,0,0,0.48308852,483.43665,98.607667)">
        <path
           style="fill:#ffffff;fill-opacity:1;fill-rule:evenodd;stroke:#000000;stroke-width:0.75258738px;stroke-linecap:butt;stroke-linejoin:miter;stroke-opacity:0"
           d="M 66.613053,264.80927 C 182.17164,274.8238 230.51985,171.96799 286.03567,109.8803 149.9962,121.05822 150.04615,192.34419 66.613053,264.80927 Z"
           id="path8162-8-9" />
        <path
           style="fill:#ffffff;fill-opacity:1;fill-rule:evenodd;stroke:#000000;stroke-width:0.75258666px;stroke-linecap:butt;stroke-linejoin:miter;stroke-opacity:0"
           d="M 81.668103,185.05688 C 197.22658,195.07139 245.57475,92.215673 301.09051,30.128033 165.05117,41.305943 165.10113,112.59186 81.668103,185.05688 Z"
           id="path8164-5-1" />
      </g>
    </g>
    <g
       transform="translate(-316.78385,-96.166522)"
       id="g4843">
      <circle
         style="fill:#9091ff;fill-opacity:1;stroke:#000000;stroke-width:1.10881388;stroke-opacity:0"
         id="path8156-6-3"
         cx="610.74011"
         cy="411.02408"
         r="107.52684" />
      <g
         style="fill:#ffffff"
         id="g8160-3-6-6"
         transform="matrix(0.48308852,0,0,0.48308852,521.92535,339.63783)">
        <path
           style="fill:#ffffff;fill-opacity:1;fill-rule:evenodd;stroke:#000000;stroke-width:0.75258738px;stroke-linecap:butt;stroke-linejoin:miter;stroke-opacity:0"
           d="M 66.613053,264.80927 C 182.17164,274.8238 230.51985,171.96799 286.03567,109.8803 149.9962,121.05822 150.04615,192.34419 66.613053,264.80927 Z"
           id="path8162-8-9-0" />
        <path
           style="fill:#ffffff;fill-opacity:1;fill-rule:evenodd;stroke:#000000;stroke-width:0.75258666px;stroke-linecap:butt;stroke-linejoin:miter;stroke-opacity:0"
           d="M 81.668103,185.05688 C 197.22658,195.07139 245.57475,92.215673 301.09051,30.128033 165.05117,41.305943 165.10113,112.59186 81.668103,185.05688 Z"
           id="path8164-5-1-6" />
      </g>
    </g>
    <g
       transform="matrix(1.14761,0,0,1.14761,-50.446669,-10.308977)"
       id="g8160-3-6-6-3"
       style="fill:#9091ff;fill-opacity:1">
      <path
         id="path8162-8-9-0-5"
         d="M 66.613053,264.80927 C 182.17164,274.8238 230.51985,171.96799 286.03567,109.8803 149.9962,121.05822 150.04615,192.34419 66.613053,264.80927 Z"
         style="fill:#9091ff;fill-opacity:1;fill-rule:evenodd;stroke:#000000;stroke-width:0.75258738px;stroke-linecap:butt;stroke-linejoin:miter;stroke-opacity:0" />
      <path
         id="path8164-5-1-6-6"
         d="M 81.668103,185.05688 C 197.22658,195.07139 245.57475,92.215673 301.09051,30.128033 165.05117,41.305943 165.10113,112.59186 81.668103,185.05688 Z"
         style="fill:#9091ff;fill-opacity:1;fill-rule:evenodd;stroke:#000000;stroke-width:0.75258666px;stroke-linecap:butt;stroke-linejoin:miter;stroke-opacity:0" />
    </g>
  </g>
</svg>
