<?xml version="1.0" encoding="UTF-8" standalone="no"?>
<svg
   xmlns:dc="http://purl.org/dc/elements/1.1/"
   xmlns:cc="http://creativecommons.org/ns#"
   xmlns:rdf="http://www.w3.org/1999/02/22-rdf-syntax-ns#"
   xmlns:svg="http://www.w3.org/2000/svg"
   xmlns="http://www.w3.org/2000/svg"
   version="1.1"
   id="svg2"
   viewBox="0 0 481.43782 402.0383"
   height="113.46414mm"
   width="135.87245mm">
  <defs
     id="defs4" />
  <metadata
     id="metadata7">
    <rdf:RDF>
      <cc:Work
         rdf:about="">
        <dc:format>image/svg+xml</dc:format>
        <dc:type
           rdf:resource="http://purl.org/dc/dcmitype/StillImage" />
        <dc:title></dc:title>
      </cc:Work>
    </rdf:RDF>
  </metadata>
  <g
     transform="translate(-24.946547,-20.900501)"
     id="layer1">
    <text
       id="text8148"
       y="469.50418"
       x="173.74623"
       style="font-style:normal;font-variant:normal;font-weight:normal;font-stretch:normal;font-size:60px;line-height:125%;font-family:'URW Gothic L';-inkscape-font-specification:'URW Gothic L';letter-spacing:0px;word-spacing:0px;fill:#90ce56;fill-opacity:1;stroke:none;stroke-width:1px;stroke-linecap:butt;stroke-linejoin:miter;stroke-opacity:1"
       xml:space="preserve"><tspan
         style="font-style:normal;font-variant:normal;font-weight:normal;font-stretch:normal;font-family:'URW Gothic L';-inkscape-font-specification:'URW Gothic L';letter-spacing:-5.01000118px"
         y="469.50418"
         x="173.74623"
         id="tspan8150" /></text>
    <circle
       r="87.829407"
       cy="109.18275"
       cx="418.10211"
       id="path8156-6"
       style="fill:#333333;fill-opacity:1;stroke:#000000;stroke-width:0.90569448;stroke-opacity:0" />
    <path
       style="fill:#333333;fill-opacity:1;fill-rule:evenodd;stroke:#000000;stroke-width:0.55350143px;stroke-linecap:butt;stroke-linejoin:miter;stroke-opacity:0"
       d="m 331.88011,195.26057 c 84.98927,7.36534 120.54768,-68.28148 161.3776,-113.94479 -100.05223,8.22097 -100.01549,60.64928 -161.3776,113.94479 z"
       id="path8162-5" />
    <path
       style="fill:#333333;fill-opacity:1;fill-rule:evenodd;stroke:#000000;stroke-width:0.55350095px;stroke-linecap:butt;stroke-linejoin:miter;stroke-opacity:0"
       d="M 342.95257,136.6055 C 427.94176,143.97082 463.50013,68.32407 504.33002,22.660804 404.27788,30.881762 404.31463,83.310039 342.95257,136.6055 Z"
       id="path8164-2" />
    <g
       transform="matrix(0.39459338,0,0,0.39459338,345.557,50.873461)"
       id="g8160-3-6"
       style="fill:#ffffff">
      <path
         id="path8162-8-9"
         d="M 66.613053,264.80927 C 182.17164,274.8238 230.51985,171.96799 286.03567,109.8803 149.9962,121.05822 150.04615,192.34419 66.613053,264.80927 Z"
         style="fill:#ffffff;fill-opacity:1;fill-rule:evenodd;stroke:#000000;stroke-width:0.75258738px;stroke-linecap:butt;stroke-linejoin:miter;stroke-opacity:0" />
      <path
         id="path8164-5-1"
         d="M 81.668103,185.05688 C 197.22658,195.07139 245.57475,92.215673 301.09051,30.128033 165.05117,41.305943 165.10113,112.59186 81.668103,185.05688 Z"
         style="fill:#ffffff;fill-opacity:1;fill-rule:evenodd;stroke:#000000;stroke-width:0.75258666px;stroke-linecap:butt;stroke-linejoin:miter;stroke-opacity:0" />
    </g>
    <circle
       r="107.52684"
       cy="314.85754"
       cx="293.95627"
       id="path8156-6-3"
       style="fill:#333333;fill-opacity:1;stroke:#000000;stroke-width:1.10881388;stroke-opacity:0" />
    <g
       transform="matrix(0.48308852,0,0,0.48308852,205.1415,243.47131)"
       id="g8160-3-6-6"
       style="fill:#ffffff">
      <path
         id="path8162-8-9-0"
         d="M 66.613053,264.80927 C 182.17164,274.8238 230.51985,171.96799 286.03567,109.8803 149.9962,121.05822 150.04615,192.34419 66.613053,264.80927 Z"
         style="fill:#ffffff;fill-opacity:1;fill-rule:evenodd;stroke:#000000;stroke-width:0.75258738px;stroke-linecap:butt;stroke-linejoin:miter;stroke-opacity:0" />
      <path
         id="path8164-5-1-6"
         d="M 81.668103,185.05688 C 197.22658,195.07139 245.57475,92.215673 301.09051,30.128033 165.05117,41.305943 165.10113,112.59186 81.668103,185.05688 Z"
         style="fill:#ffffff;fill-opacity:1;fill-rule:evenodd;stroke:#000000;stroke-width:0.75258666px;stroke-linecap:butt;stroke-linejoin:miter;stroke-opacity:0" />
    </g>
    <g
       transform="matrix(1.14761,0,0,1.14761,-50.446669,-10.308977)"
       id="g8160-3-6-6-3"
       style="fill:#333333;fill-opacity:1">
      <path
         id="path8162-8-9-0-5"
         d="M 66.613053,264.80927 C 182.17164,274.8238 230.51985,171.96799 286.03567,109.8803 149.9962,121.05822 150.04615,192.34419 66.613053,264.80927 Z"
         style="fill:#333333;fill-opacity:1;fill-rule:evenodd;stroke:#000000;stroke-width:0.75258738px;stroke-linecap:butt;stroke-linejoin:miter;stroke-opacity:0" />
      <path
         id="path8164-5-1-6-6"
         d="M 81.668103,185.05688 C 197.22658,195.07139 245.57475,92.215673 301.09051,30.128033 165.05117,41.305943 165.10113,112.59186 81.668103,185.05688 Z"
         style="fill:#333333;fill-opacity:1;fill-rule:evenodd;stroke:#000000;stroke-width:0.75258666px;stroke-linecap:butt;stroke-linejoin:miter;stroke-opacity:0" />
    </g>
  </g>
</svg>
