<?xml version="1.0" encoding="UTF-8" standalone="no"?>
<svg
   xmlns:dc="http://purl.org/dc/elements/1.1/"
   xmlns:cc="http://creativecommons.org/ns#"
   xmlns:rdf="http://www.w3.org/1999/02/22-rdf-syntax-ns#"
   xmlns:svg="http://www.w3.org/2000/svg"
   xmlns="http://www.w3.org/2000/svg"
   version="1.1"
   id="svg2"
   viewBox="0 0 467.40127 444.28973"
   height="125.38844mm"
   width="131.91103mm">
  <defs
     id="defs4" />
  <metadata
     id="metadata7">
    <rdf:RDF>
      <cc:Work
         rdf:about="">
        <dc:format>image/svg+xml</dc:format>
        <dc:type
           rdf:resource="http://purl.org/dc/dcmitype/StillImage" />
        <dc:title></dc:title>
      </cc:Work>
    </rdf:RDF>
  </metadata>
  <g
     transform="translate(-6.1716572,-20.931041)"
     id="layer1">
    <text
       id="text8148"
       y="453.51816"
       x="155.22363"
       style="font-style:normal;font-variant:normal;font-weight:normal;font-stretch:normal;font-size:60px;line-height:125%;font-family:'URW Gothic L';-inkscape-font-specification:'URW Gothic L';letter-spacing:0px;word-spacing:0px;fill:#90ce56;fill-opacity:1;stroke:none;stroke-width:1px;stroke-linecap:butt;stroke-linejoin:miter;stroke-opacity:1"
       xml:space="preserve"><tspan
         style="font-style:normal;font-variant:normal;font-weight:normal;font-stretch:normal;font-family:'URW Gothic L';-inkscape-font-specification:'URW Gothic L';letter-spacing:-5.01000118px"
         y="453.51816"
         x="155.22363"
         id="tspan8150" /></text>
    <g
       transform="translate(-95.459415,-126.57211)"
       id="text4925"
       style="font-style:normal;font-variant:normal;font-weight:300;font-stretch:normal;font-size:40px;line-height:125%;font-family:Aquawax;-inkscape-font-specification:'Aquawax Light';letter-spacing:0px;word-spacing:0px;fill:#9091ff;fill-opacity:1;stroke:none;stroke-width:1px;stroke-linecap:butt;stroke-linejoin:miter;stroke-opacity:1" />
    <text
       id="text8148-8"
       y="553.9491"
       x="-23.329868"
       style="font-style:normal;font-variant:normal;font-weight:normal;font-stretch:normal;font-size:60px;line-height:125%;font-family:'URW Gothic L';-inkscape-font-specification:'URW Gothic L';letter-spacing:0px;word-spacing:0px;fill:#90ce56;fill-opacity:1;stroke:none;stroke-width:1px;stroke-linecap:butt;stroke-linejoin:miter;stroke-opacity:1"
       xml:space="preserve"><tspan
         style="font-style:normal;font-variant:normal;font-weight:normal;font-stretch:normal;font-family:'URW Gothic L';-inkscape-font-specification:'URW Gothic L';letter-spacing:-5.01000118px"
         y="553.9491"
         x="-23.329868"
         id="tspan8150-3" /></text>
    <g
       id="g4184">
      <circle
         style="fill:#333333;fill-opacity:1;stroke:#000000;stroke-width:0.6953209;stroke-opacity:0"
         id="path8156-6"
         cx="73.947815"
         cy="224.51854"
         r="67.428497" />
      <path
         id="path8162-5"
         d="M 7.7533513,290.6023 C 73.001414,296.25682 100.30036,238.18115 131.64636,203.12446 54.834138,209.43588 54.862338,249.6862 7.7533513,290.6023 Z"
         style="fill:#333333;fill-opacity:1;fill-rule:evenodd;stroke:#000000;stroke-width:0.4249348px;stroke-linecap:butt;stroke-linejoin:miter;stroke-opacity:0" />
      <path
         id="path8164-2"
         d="M 16.253913,245.57155 C 81.501912,251.22607 108.80083,193.15045 140.1468,158.09379 63.334649,164.4052 63.362862,204.6555 16.253913,245.57155 Z"
         style="fill:#333333;fill-opacity:1;fill-rule:evenodd;stroke:#000000;stroke-width:0.42493439px;stroke-linecap:butt;stroke-linejoin:miter;stroke-opacity:0" />
      <g
         style="fill:#ffffff"
         id="g8160-3-6"
         transform="matrix(0.30293771,0,0,0.30293771,18.253387,179.75325)">
        <path
           style="fill:#ffffff;fill-opacity:1;fill-rule:evenodd;stroke:#000000;stroke-width:0.75258738px;stroke-linecap:butt;stroke-linejoin:miter;stroke-opacity:0"
           d="M 66.613053,264.80927 C 182.17164,274.8238 230.51985,171.96799 286.03567,109.8803 149.9962,121.05822 150.04615,192.34419 66.613053,264.80927 Z"
           id="path8162-8-9" />
        <path
           style="fill:#ffffff;fill-opacity:1;fill-rule:evenodd;stroke:#000000;stroke-width:0.75258666px;stroke-linecap:butt;stroke-linejoin:miter;stroke-opacity:0"
           d="M 81.668103,185.05688 C 197.22658,195.07139 245.57475,92.215673 301.09051,30.128033 165.05117,41.305943 165.10113,112.59186 81.668103,185.05688 Z"
           id="path8164-5-1" />
      </g>
      <path
         id="rect4958-4"
         style="fill:#333333;fill-opacity:1;stroke:#000000;stroke-opacity:0"
         d="m 247.59594,227.98561 3.7786,0 0,1.45131 -3.7786,0 z m -45.13883,0 2.74004,0 0,0.98174 -2.74004,0 z m 249.31371,-18.45208 q 0.54,0.585 0.81,1.35 0.315,0.765 0.45,1.44 0.18,0.81 0.135,1.62 0.63,-1.26 1.8,-2.205 1.17,-0.945 2.565,-1.53 1.395,-0.63 2.88,-0.945 1.485,-0.315 2.745,-0.315 3.915,0 9.855,2.385 l -1.035,5.94 q -0.315,1.755 -1.215,2.925 -0.855,1.17 -2.07,1.89 -1.215,0.675 -2.655,0.99 -1.44,0.27 -2.925,0.27 -1.53,0 -2.925,0.405 -1.395,0.405 -2.475,1.08 -1.08,0.63 -1.845,1.485 -0.72,0.81 -0.9,1.665 l 0,28.8 -14.715,0 0,-47.25 11.52,0 z m -25.29452,47.25 q -0.945,-1.035 -1.395,-2.655 -0.45,-1.62 -0.45,-3.33 0,-0.315 0,-0.585 0,-0.27 0.045,-0.585 -0.54,1.575 -1.89,3.015 -1.305,1.395 -3.105,2.475 -1.8,1.08 -3.96,1.71 -2.115,0.63 -4.32,0.63 -4.23,0 -7.56,-1.53 -3.285,-1.53 -5.58,-4.32 -2.295,-2.79 -3.51,-6.75 -1.215,-4.005 -1.215,-8.91 l 0,-26.415 14.715,0 0,25.74 q 0,2.52 0.45,4.05 0.495,1.485 1.215,2.295 0.765,0.765 1.575,1.035 0.855,0.225 1.62,0.225 1.935,0 3.69,-0.45 1.8,-0.45 3.15,-1.26 1.35,-0.855 2.16,-2.025 0.81,-1.17 0.81,-2.655 l 0,-26.955 14.715,0 0,47.25 -11.16,0 z m -35.80204,-64.485 0,64.485 -14.76,0 0,-64.485 14.76,0 z m -63.47702,0 14.715,0 0,19.53 c 1.14,-0.81 2.46,-1.5 3.96,-2.07 1.53,-0.6 3.105,-0.9 4.725,-0.9 3.33,0 6.465,0.645 9.405,1.935 2.97,1.26 5.55,3 7.74,5.22 2.22,2.19 3.96,4.77 5.22,7.74 1.29,2.94 1.935,6.075 1.935,9.405 0,3.3 -0.63,6.42 -1.89,9.36 -1.26,2.94 -2.985,5.52 -5.175,7.74 -2.16,2.22 -4.695,3.975 -7.605,5.265 -2.91,1.29 -6.015,1.935 -9.315,1.935 l -0.315,0 c -0.99,0 -2.01,-0.15 -3.06,-0.45 -1.02,-0.27 -1.995,-0.615 -2.925,-1.035 -0.9,-0.45 -1.71,-0.945 -2.43,-1.485 -0.72,-0.54 -1.275,-1.08 -1.665,-1.62 l -0.36,-0.27 c -0.06,0.75 -0.165,1.395 -0.315,1.935 -0.15,0.51 -0.3,0.93 -0.45,1.26 -0.18,0.39 -0.36,0.72 -0.54,0.99 l -11.655,0 z m 23.31,50.355 c 1.29,0 2.505,-0.24 3.645,-0.72 1.17,-0.51 2.19,-1.185 3.06,-2.025 0.87,-0.87 1.545,-1.875 2.025,-3.015 0.51,-1.17 0.765,-2.4 0.765,-3.69 0,-1.29 -0.255,-2.505 -0.765,-3.645 -0.48,-1.17 -1.155,-2.19 -2.025,-3.06 -0.87,-0.87 -1.89,-1.545 -3.06,-2.025 -1.14,-0.51 -2.355,-0.765 -3.645,-0.765 -1.89,0 -3.6,0.51 -5.13,1.53 -1.5,1.02 -2.81183,2.32534 -3.42,3.96 -0.93102,2.50242 -0.93102,5.50758 0,8.01 0.60817,1.63466 1.92,2.94 3.42,3.96 1.53,0.99 3.24,1.485 5.13,1.485 z m -24.70531,14.13 -11.655,0 c -0.21,-0.27 -0.39,-0.6 -0.54,-0.99 -0.15,-0.33 -0.3,-0.75 -0.45,-1.26 -0.15,-0.54 -0.255,-1.185 -0.315,-1.935 l -0.36,0.27 c -0.39,0.54 -0.945,1.08 -1.665,1.62 -0.72,0.54 -1.545,1.035 -2.475,1.485 -0.9,0.42 -1.875,0.765 -2.925,1.035 -1.02,0.3 -2.025,0.45 -3.015,0.45 l -0.315,0 c -3.3,0 -6.405,-0.645 -9.315,-1.935 -2.91,-1.29 -5.46,-3.045 -7.65,-5.265 -2.16,-2.22 -3.87,-4.8 -5.13,-7.74 -1.26,-2.94 -1.89,-6.06 -1.89,-9.36 0,-3.33 0.63,-6.465 1.89,-9.405 1.29,-2.97 3.03,-5.55 5.22,-7.74 2.22,-2.22 4.8,-3.96 7.74,-5.22 2.97,-1.29 6.12,-1.935 9.45,-1.935 1.62,0 3.18,0.3 4.68,0.9 1.53,0.57 2.865,1.26 4.005,2.07 l 0,-19.53 14.715,0 z m -23.31,-14.13 c 1.89,0 3.585,-0.495 5.085,-1.485 1.53,-1.02 2.84808,-2.3181 3.465,-3.96 0.93911,-2.49939 0.93911,-5.51061 0,-8.01 -0.61692,-1.6419 -1.935,-2.94 -3.465,-3.96 -1.5,-1.02 -3.195,-1.53 -5.085,-1.53 -1.32,0 -2.55,0.255 -3.69,0.765 -1.14,0.48 -2.145,1.155 -3.015,2.025 -0.87,0.87 -1.56,1.89 -2.07,3.06 -0.48,1.14 -0.72,2.355 -0.72,3.645 0,1.29 0.24,2.52 0.72,3.69 0.51,1.14 1.2,2.145 2.07,3.015 0.87,0.84 1.875,1.515 3.015,2.025 1.14,0.48 2.37,0.72 3.69,0.72 z m -21.46953,-12.015 q 0,2.115 -0.855,3.645 -0.855,1.485 -2.16,2.43 -1.305,0.945 -2.88,1.395 -1.53,0.405 -2.97,0.405 l -23.31,0 q 0.495,1.62 1.575,2.88 0.9,1.08 2.43,1.98 1.575,0.9 4.05,0.9 1.305,0 2.475,-0.405 1.215,-0.405 2.385,-0.855 1.17,-0.495 2.385,-0.9 1.26,-0.405 2.7,-0.405 2.115,0 3.69,0.72 1.575,0.675 2.925,2.025 l 3.735,3.735 q -4.275,4.635 -9.45,6.975 -5.175,2.295 -10.575,2.295 -5.04,0 -9.495,-1.89 -4.455,-1.935 -7.785,-5.22 -3.285,-3.33 -5.22,-7.74 -1.935,-4.455 -1.935,-9.45 0,-4.995 1.935,-9.405 1.935,-4.455 5.22,-7.74 3.33,-3.33 7.785,-5.22 4.455,-1.935 9.495,-1.935 4.185,0 8.055,1.53 3.87,1.485 7.02,4.05 3.15,2.565 5.4,6.03 2.25,3.42 3.15,7.245 0.18,0.72 0.18,1.62 0.045,0.855 0.045,1.305 z m -15.12,-2.655 q -0.81,-1.665 -2.025,-2.97 -1.035,-1.125 -2.745,-2.025 -1.665,-0.945 -4.095,-0.945 -2.565,0 -4.275,1.08 -1.71,1.035 -2.745,2.295 -1.17,1.485 -1.845,3.33 0.27,-0.18 0.63,-0.36 0.315,-0.135 0.72,-0.27 0.405,-0.135 0.9,-0.135 l 15.48,0 z m -30.19953,2.655 q 0,2.115 -0.855,3.645 -0.855,1.485 -2.16,2.43 -1.305,0.945 -2.88,1.395 -1.53,0.405 -2.97,0.405 l -23.31,0 q 0.495,1.62 1.575,2.88 0.9,1.08 2.43,1.98 1.575,0.9 4.05,0.9 1.305,0 2.475,-0.405 1.215,-0.405 2.385,-0.855 1.17,-0.495 2.385,-0.9 1.26,-0.405 2.7,-0.405 2.115,0 3.69,0.72 1.575,0.675 2.925,2.025 l 3.735,3.735 q -4.275,4.635 -9.45,6.975 -5.175,2.295 -10.575,2.295 -5.04,0 -9.495,-1.89 -4.455,-1.935 -7.785,-5.22 -3.285,-3.33 -5.22,-7.74 -1.935,-4.455 -1.935,-9.45 0,-4.995 1.935,-9.405 1.935,-4.455 5.22,-7.74 3.33,-3.33 7.785,-5.22 4.455,-1.935 9.495,-1.935 4.185,0 8.055,1.53 3.87,1.485 7.02,4.05 3.15,2.565 5.4,6.03 2.25,3.42 3.15,7.245 0.18,0.72 0.18,1.62 0.045,0.855 0.045,1.305 z m -15.12,-2.655 q -0.81,-1.665 -2.025,-2.97 -1.035,-1.125 -2.745,-2.025 -1.665,-0.945 -4.095,-0.945 -2.565,0 -4.275,1.08 -1.71,1.035 -2.745,2.295 -1.17,1.485 -1.845,3.33 0.27,-0.18 0.63,-0.36 0.315,-0.135 0.72,-0.27 0.405,-0.135 0.9,-0.135 l 15.48,0 z m -50.56062,28.8 0,-33.525 -6.795,0 0,-8.325 q 0,-1.26 0.18,-2.25 0.18,-1.035 0.81,-1.71 0.675,-0.72 1.98,-1.08 1.305,-0.36 3.6,-0.36 l 0.225,0 0,-3.825 q 0,-3.105 0.945,-5.67 0.99,-2.61 2.79,-4.455 1.845,-1.89 4.41,-2.925 2.61,-1.08 5.85,-1.08 1.35,0 3.24,0.54 1.89,0.54 3.825,1.44 1.98,0.855 3.78,2.025 1.845,1.125 3.105,2.385 l -2.25,3.69 q -1.17,1.98 -2.925,2.79 -1.71,0.81 -4.275,0.81 -0.36,0 -1.17,-0.18 -0.81,-0.225 -1.305,-0.225 -0.9,0 -1.17,0.54 -0.225,0.495 -0.225,1.17 0,0.315 0,0.99 0,0.63 0.045,1.89 l 8.73,0 0,13.815 -8.685,0 0,33.525 -14.715,0 z" />
    </g>
    <g
       id="g4177">
      <circle
         style="fill:#333333;fill-opacity:1;stroke:#000000;stroke-width:0.69531924;stroke-opacity:0"
         id="path8156-6-3"
         cx="74.252594"
         cy="397.44476"
         r="67.428337" />
      <g
         style="fill:#ffffff"
         id="g8160-3-6-6"
         transform="matrix(0.30293699,0,0,0.30293699,18.558297,352.6796)">
        <path
           style="fill:#ffffff;fill-opacity:1;fill-rule:evenodd;stroke:#000000;stroke-width:0.75258738px;stroke-linecap:butt;stroke-linejoin:miter;stroke-opacity:0"
           d="M 66.613053,264.80927 C 182.17164,274.8238 230.51985,171.96799 286.03567,109.8803 149.9962,121.05822 150.04615,192.34419 66.613053,264.80927 Z"
           id="path8162-8-9-0" />
        <path
           style="fill:#ffffff;fill-opacity:1;fill-rule:evenodd;stroke:#000000;stroke-width:0.75258666px;stroke-linecap:butt;stroke-linejoin:miter;stroke-opacity:0"
           d="M 81.668103,185.05688 C 197.22658,195.07139 245.57475,92.215673 301.09051,30.128033 165.05117,41.305943 165.10113,112.59186 81.668103,185.05688 Z"
           id="path8164-5-1-6" />
      </g>
      <path
         id="rect4958-4-8"
         style="fill:#333333;fill-opacity:1;stroke:#000000;stroke-opacity:0"
         d="m 247.58799,400.91185 3.7786,0 0,1.45131 -3.7786,0 z m -45.13883,0 2.74004,0 0,0.98174 -2.74004,0 z m 249.31371,-18.45208 q 0.54,0.585 0.81,1.35 0.315,0.765 0.45,1.44 0.18,0.81 0.135,1.62 0.63,-1.26 1.8,-2.205 1.17,-0.945 2.565,-1.53 1.395,-0.63 2.88,-0.945 1.485,-0.315 2.745,-0.315 3.915,0 9.855,2.385 l -1.035,5.94 q -0.315,1.755 -1.215,2.925 -0.855,1.17 -2.07,1.89 -1.215,0.675 -2.655,0.99 -1.44,0.27 -2.925,0.27 -1.53,0 -2.925,0.405 -1.395,0.405 -2.475,1.08 -1.08,0.63 -1.845,1.485 -0.72,0.81 -0.9,1.665 l 0,28.8 -14.715,0 0,-47.25 11.52,0 z m -25.29452,47.25 q -0.945,-1.035 -1.395,-2.655 -0.45,-1.62 -0.45,-3.33 0,-0.315 0,-0.585 0,-0.27 0.045,-0.585 -0.54,1.575 -1.89,3.015 -1.305,1.395 -3.105,2.475 -1.8,1.08 -3.96,1.71 -2.115,0.63 -4.32,0.63 -4.23,0 -7.56,-1.53 -3.285,-1.53 -5.58,-4.32 -2.295,-2.79 -3.51,-6.75 -1.215,-4.005 -1.215,-8.91 l 0,-26.415 14.715,0 0,25.74 q 0,2.52 0.45,4.05 0.495,1.485 1.215,2.295 0.765,0.765 1.575,1.035 0.855,0.225 1.62,0.225 1.935,0 3.69,-0.45 1.8,-0.45 3.15,-1.26 1.35,-0.855 2.16,-2.025 0.81,-1.17 0.81,-2.655 l 0,-26.955 14.715,0 0,47.25 -11.16,0 z m -35.80204,-64.485 0,64.485 -14.76,0 0,-64.485 14.76,0 z m -63.47702,0 14.715,0 0,19.53 c 1.14,-0.81 2.46,-1.5 3.96,-2.07 1.53,-0.6 3.105,-0.9 4.725,-0.9 3.33,0 6.465,0.645 9.405,1.935 2.97,1.26 5.55,3 7.74,5.22 2.22,2.19 3.96,4.77 5.22,7.74 1.29,2.94 1.935,6.075 1.935,9.405 0,3.3 -0.63,6.42 -1.89,9.36 -1.26,2.94 -2.985,5.52 -5.175,7.74 -2.16,2.22 -4.695,3.975 -7.605,5.265 -2.91,1.29 -6.015,1.935 -9.315,1.935 l -0.315,0 c -0.99,0 -2.01,-0.15 -3.06,-0.45 -1.02,-0.27 -1.995,-0.615 -2.925,-1.035 -0.9,-0.45 -1.71,-0.945 -2.43,-1.485 -0.72,-0.54 -1.275,-1.08 -1.665,-1.62 l -0.36,-0.27 c -0.06,0.75 -0.165,1.395 -0.315,1.935 -0.15,0.51 -0.3,0.93 -0.45,1.26 -0.18,0.39 -0.36,0.72 -0.54,0.99 l -11.655,0 z m 23.31,50.355 c 1.29,0 2.505,-0.24 3.645,-0.72 1.17,-0.51 2.19,-1.185 3.06,-2.025 0.87,-0.87 1.545,-1.875 2.025,-3.015 0.51,-1.17 0.765,-2.4 0.765,-3.69 0,-1.29 -0.255,-2.505 -0.765,-3.645 -0.48,-1.17 -1.155,-2.19 -2.025,-3.06 -0.87,-0.87 -1.89,-1.545 -3.06,-2.025 -1.14,-0.51 -2.355,-0.765 -3.645,-0.765 -1.89,0 -3.6,0.51 -5.13,1.53 -1.5,1.02 -2.81183,2.32534 -3.42,3.96 -0.93102,2.50242 -0.93102,5.50758 0,8.01 0.60817,1.63466 1.92,2.94 3.42,3.96 1.53,0.99 3.24,1.485 5.13,1.485 z m -24.70531,14.13 -11.655,0 c -0.21,-0.27 -0.39,-0.6 -0.54,-0.99 -0.15,-0.33 -0.3,-0.75 -0.45,-1.26 -0.15,-0.54 -0.255,-1.185 -0.315,-1.935 l -0.36,0.27 c -0.39,0.54 -0.945,1.08 -1.665,1.62 -0.72,0.54 -1.545,1.035 -2.475,1.485 -0.9,0.42 -1.875,0.765 -2.925,1.035 -1.02,0.3 -2.025,0.45 -3.015,0.45 l -0.315,0 c -3.3,0 -6.405,-0.645 -9.315,-1.935 -2.91,-1.29 -5.46,-3.045 -7.65,-5.265 -2.16,-2.22 -3.87,-4.8 -5.13,-7.74 -1.26,-2.94 -1.89,-6.06 -1.89,-9.36 0,-3.33 0.63,-6.465 1.89,-9.405 1.29,-2.97 3.03,-5.55 5.22,-7.74 2.22,-2.22 4.8,-3.96 7.74,-5.22 2.97,-1.29 6.12,-1.935 9.45,-1.935 1.62,0 3.18,0.3 4.68,0.9 1.53,0.57 2.865,1.26 4.005,2.07 l 0,-19.53 14.715,0 z m -23.31,-14.13 c 1.89,0 3.585,-0.495 5.085,-1.485 1.53,-1.02 2.84808,-2.3181 3.465,-3.96 0.93911,-2.49939 0.93911,-5.51061 0,-8.01 -0.61692,-1.6419 -1.935,-2.94 -3.465,-3.96 -1.5,-1.02 -3.195,-1.53 -5.085,-1.53 -1.32,0 -2.55,0.255 -3.69,0.765 -1.14,0.48 -2.145,1.155 -3.015,2.025 -0.87,0.87 -1.56,1.89 -2.07,3.06 -0.48,1.14 -0.72,2.355 -0.72,3.645 0,1.29 0.24,2.52 0.72,3.69 0.51,1.14 1.2,2.145 2.07,3.015 0.87,0.84 1.875,1.515 3.015,2.025 1.14,0.48 2.37,0.72 3.69,0.72 z m -21.46953,-12.015 q 0,2.115 -0.855,3.645 -0.855,1.485 -2.16,2.43 -1.305,0.945 -2.88,1.395 -1.53,0.405 -2.97,0.405 l -23.31,0 q 0.495,1.62 1.575,2.88 0.9,1.08 2.43,1.98 1.575,0.9 4.05,0.9 1.305,0 2.475,-0.405 1.215,-0.405 2.385,-0.855 1.17,-0.495 2.385,-0.9 1.26,-0.405 2.7,-0.405 2.115,0 3.69,0.72 1.575,0.675 2.925,2.025 l 3.735,3.735 q -4.275,4.635 -9.45,6.975 -5.175,2.295 -10.575,2.295 -5.04,0 -9.495,-1.89 -4.455,-1.935 -7.785,-5.22 -3.285,-3.33 -5.22,-7.74 -1.935,-4.455 -1.935,-9.45 0,-4.995 1.935,-9.405 1.935,-4.455 5.22,-7.74 3.33,-3.33 7.785,-5.22 4.455,-1.935 9.495,-1.935 4.185,0 8.055,1.53 3.87,1.485 7.02,4.05 3.15,2.565 5.4,6.03 2.25,3.42 3.15,7.245 0.18,0.72 0.18,1.62 0.045,0.855 0.045,1.305 z m -15.12,-2.655 q -0.81,-1.665 -2.025,-2.97 -1.035,-1.125 -2.745,-2.025 -1.665,-0.945 -4.095,-0.945 -2.565,0 -4.275,1.08 -1.71,1.035 -2.745,2.295 -1.17,1.485 -1.845,3.33 0.27,-0.18 0.63,-0.36 0.315,-0.135 0.72,-0.27 0.405,-0.135 0.9,-0.135 l 15.48,0 z m -30.19953,2.655 q 0,2.115 -0.855,3.645 -0.855,1.485 -2.16,2.43 -1.305,0.945 -2.88,1.395 -1.53,0.405 -2.97,0.405 l -23.31,0 q 0.495,1.62 1.575,2.88 0.9,1.08 2.43,1.98 1.575,0.9 4.05,0.9 1.305,0 2.475,-0.405 1.215,-0.405 2.385,-0.855 1.17,-0.495 2.385,-0.9 1.26,-0.405 2.7,-0.405 2.115,0 3.69,0.72 1.575,0.675 2.925,2.025 l 3.735,3.735 q -4.275,4.635 -9.45,6.975 -5.175,2.295 -10.575,2.295 -5.04,0 -9.495,-1.89 -4.455,-1.935 -7.785,-5.22 -3.285,-3.33 -5.22,-7.74 -1.935,-4.455 -1.935,-9.45 0,-4.995 1.935,-9.405 1.935,-4.455 5.22,-7.74 3.33,-3.33 7.785,-5.22 4.455,-1.935 9.495,-1.935 4.185,0 8.055,1.53 3.87,1.485 7.02,4.05 3.15,2.565 5.4,6.03 2.25,3.42 3.15,7.245 0.18,0.72 0.18,1.62 0.045,0.855 0.045,1.305 z m -15.12,-2.655 q -0.81,-1.665 -2.025,-2.97 -1.035,-1.125 -2.745,-2.025 -1.665,-0.945 -4.095,-0.945 -2.565,0 -4.275,1.08 -1.71,1.035 -2.745,2.295 -1.17,1.485 -1.845,3.33 0.27,-0.18 0.63,-0.36 0.315,-0.135 0.72,-0.27 0.405,-0.135 0.9,-0.135 l 15.48,0 z m -50.56061,28.8 0,-33.525 -6.795,0 0,-8.325 q 0,-1.26 0.18,-2.25 0.18,-1.035 0.81,-1.71 0.675,-0.72 1.98,-1.08 1.305,-0.36 3.6,-0.36 l 0.225,0 0,-3.825 q 0,-3.105 0.945,-5.67 0.99,-2.61 2.78999,-4.455 1.845,-1.89 4.41,-2.925 2.61,-1.08 5.85,-1.08 1.35,0 3.24,0.54 1.89,0.54 3.825,1.44 1.98,0.855 3.78,2.025 1.845,1.125 3.105,2.385 l -2.25,3.69 q -1.17,1.98 -2.925,2.79 -1.71,0.81 -4.275,0.81 -0.36,0 -1.17,-0.18 -0.81,-0.225 -1.305,-0.225 -0.9,0 -1.17,0.54 -0.225,0.495 -0.225,1.17 0,0.315 0,0.99 0,0.63 0.045,1.89 l 8.73,0 0,13.815 -8.685,0 0,33.525 -14.71499,0 z" />
    </g>
    <g
       style="fill:#333333"
       id="g5193">
      <g
         style="fill:#333333;fill-opacity:1"
         id="g8160-3-6-6-3"
         transform="matrix(0.42293254,0,0,0.42293254,-3.6554416,8.3801936)">
        <path
           style="fill:#333333;fill-opacity:1;fill-rule:evenodd;stroke:#000000;stroke-width:0.75258738px;stroke-linecap:butt;stroke-linejoin:miter;stroke-opacity:0"
           d="M 66.613053,264.80927 C 182.17164,274.8238 230.51985,171.96799 286.03567,109.8803 149.9962,121.05822 150.04615,192.34419 66.613053,264.80927 Z"
           id="path8162-8-9-0-5" />
        <path
           style="fill:#333333;fill-opacity:1;fill-rule:evenodd;stroke:#000000;stroke-width:0.75258666px;stroke-linecap:butt;stroke-linejoin:miter;stroke-opacity:0"
           d="M 81.668103,185.05688 C 197.22658,195.07139 245.57475,92.215673 301.09051,30.128033 165.05117,41.305943 165.10113,112.59186 81.668103,185.05688 Z"
           id="path8164-5-1-6-6" />
      </g>
      <path
         id="rect4958"
         style="fill:#333333;fill-opacity:1;stroke:#000000;stroke-opacity:0"
         d="m 247.58858,74.344269 3.7786,0 0,1.45131 -3.7786,0 z m -45.13883,0 2.74004,0 0,0.98174 -2.74004,0 z m 249.31371,-18.45208 q 0.54,0.585 0.81,1.35 0.315,0.765 0.45,1.44 0.18,0.81 0.135,1.62 0.63,-1.26 1.8,-2.205 1.17,-0.945 2.565,-1.53 1.395,-0.63 2.88,-0.945 1.485,-0.315 2.745,-0.315 3.915,0 9.855,2.385 l -1.035,5.94 q -0.315,1.755 -1.215,2.925 -0.855,1.17 -2.07,1.89 -1.215,0.675 -2.655,0.99 -1.44,0.27 -2.925,0.27 -1.53,0 -2.925,0.405 -1.395,0.405 -2.475,1.08 -1.08,0.63 -1.845,1.485 -0.72,0.81 -0.9,1.665 l 0,28.800001 -14.715,0 0,-47.250001 11.52,0 z m -25.29452,47.250001 q -0.945,-1.035 -1.395,-2.655 -0.45,-1.620001 -0.45,-3.330001 0,-0.315 0,-0.585 0,-0.27 0.045,-0.585 -0.54,1.575 -1.89,3.015 -1.305,1.395001 -3.105,2.475001 -1.8,1.08 -3.96,1.71 -2.115,0.63 -4.32,0.63 -4.23,0 -7.56,-1.53 -3.285,-1.53 -5.58,-4.320001 -2.295,-2.79 -3.51,-6.75 -1.215,-4.005 -1.215,-8.91 l 0,-26.415 14.715,0 0,25.74 q 0,2.52 0.45,4.05 0.495,1.485 1.215,2.295 0.765,0.765 1.575,1.035 0.855,0.225 1.62,0.225 1.935,0 3.69,-0.45 1.8,-0.45 3.15,-1.26 1.35,-0.855 2.16,-2.025 0.81,-1.17 0.81,-2.655 l 0,-26.955 14.715,0 0,47.250001 -11.16,0 z m -35.80204,-64.485001 0,64.485001 -14.76,0 0,-64.485001 14.76,0 z m -63.47702,0 14.715,0 0,19.53 c 1.14,-0.81 2.46,-1.5 3.96,-2.07 1.53,-0.6 3.105,-0.9 4.725,-0.9 3.33,0 6.465,0.645 9.405,1.935 2.97,1.26 5.55,3 7.74,5.22 2.22,2.19 3.96,4.77 5.22,7.74 1.29,2.94 1.935,6.075 1.935,9.405 0,3.3 -0.63,6.42 -1.89,9.36 -1.26,2.94 -2.985,5.52 -5.175,7.74 -2.16,2.22 -4.695,3.975001 -7.605,5.265001 -2.91,1.29 -6.015,1.935 -9.315,1.935 l -0.315,0 c -0.99,0 -2.01,-0.15 -3.06,-0.45 -1.02,-0.27 -1.995,-0.615 -2.925,-1.035 -0.9,-0.45 -1.71,-0.945 -2.43,-1.485 -0.72,-0.54 -1.275,-1.080001 -1.665,-1.620001 l -0.36,-0.27 c -0.06,0.75 -0.165,1.395001 -0.315,1.935001 -0.15,0.51 -0.3,0.93 -0.45,1.26 -0.18,0.39 -0.36,0.72 -0.54,0.99 l -11.655,0 z m 23.31,50.355 c 1.29,0 2.505,-0.24 3.645,-0.72 1.17,-0.51 2.19,-1.185 3.06,-2.025 0.87,-0.87 1.545,-1.875 2.025,-3.015 0.51,-1.17 0.765,-2.4 0.765,-3.69 0,-1.29 -0.255,-2.505 -0.765,-3.645 -0.48,-1.17 -1.155,-2.19 -2.025,-3.06 -0.87,-0.87 -1.89,-1.545 -3.06,-2.025 -1.14,-0.51 -2.355,-0.765 -3.645,-0.765 -1.89,0 -3.6,0.51 -5.13,1.53 -1.5,1.02 -2.81183,2.32534 -3.42,3.96 -0.93102,2.50242 -0.93102,5.50758 0,8.01 0.60817,1.63466 1.92,2.94 3.42,3.96 1.53,0.99 3.24,1.485 5.13,1.485 z m -24.70531,14.130001 -11.655,0 c -0.21,-0.27 -0.39,-0.6 -0.54,-0.99 -0.15,-0.33 -0.3,-0.75 -0.45,-1.26 -0.15,-0.54 -0.255,-1.185001 -0.315,-1.935001 l -0.36,0.27 c -0.39,0.54 -0.945,1.080001 -1.665,1.620001 -0.72,0.54 -1.545,1.035 -2.475,1.485 -0.9,0.42 -1.875,0.765 -2.925,1.035 -1.02,0.3 -2.025,0.45 -3.015,0.45 l -0.315,0 c -3.3,0 -6.405,-0.645 -9.315,-1.935 -2.91,-1.29 -5.46,-3.045001 -7.65,-5.265001 -2.16,-2.22 -3.87,-4.8 -5.13,-7.74 -1.26,-2.94 -1.89,-6.06 -1.89,-9.36 0,-3.33 0.63,-6.465 1.89,-9.405 1.29,-2.97 3.03,-5.55 5.22,-7.74 2.22,-2.22 4.8,-3.96 7.74,-5.22 2.97,-1.29 6.12,-1.935 9.45,-1.935 1.62,0 3.18,0.3 4.68,0.9 1.53,0.57 2.865,1.26 4.005,2.07 l 0,-19.53 14.715,0 z m -23.31,-14.130001 c 1.89,0 3.585,-0.495 5.085,-1.485 1.53,-1.02 2.84808,-2.3181 3.465,-3.96 0.93911,-2.49939 0.93911,-5.51061 0,-8.01 -0.61692,-1.6419 -1.935,-2.94 -3.465,-3.96 -1.5,-1.02 -3.195,-1.53 -5.085,-1.53 -1.32,0 -2.55,0.255 -3.69,0.765 -1.14,0.48 -2.145,1.155 -3.015,2.025 -0.87,0.87 -1.56,1.89 -2.07,3.06 -0.48,1.14 -0.72,2.355 -0.72,3.645 0,1.29 0.24,2.52 0.72,3.69 0.51,1.14 1.2,2.145 2.07,3.015 0.87,0.84 1.875,1.515 3.015,2.025 1.14,0.48 2.37,0.72 3.69,0.72 z m -21.46953,-12.015 q 0,2.115 -0.855,3.645 -0.855,1.485 -2.16,2.43 -1.305,0.945 -2.88,1.395 -1.53,0.405 -2.97,0.405 l -23.31,0 q 0.495,1.62 1.575,2.88 0.9,1.08 2.43,1.98 1.575,0.9 4.05,0.9 1.305,0 2.475,-0.405 1.215,-0.405 2.385,-0.855 1.17,-0.495 2.385,-0.9 1.26,-0.405 2.7,-0.405 2.115,0 3.69,0.72 1.575,0.675 2.925,2.025 l 3.735,3.735 q -4.275,4.635 -9.45,6.975001 -5.175,2.295 -10.575,2.295 -5.04,0 -9.495,-1.89 -4.455,-1.935001 -7.785,-5.220001 -3.285,-3.33 -5.22,-7.74 -1.935,-4.455 -1.935,-9.45 0,-4.995 1.935,-9.405 1.935,-4.455 5.22,-7.74 3.33,-3.33 7.785,-5.22 4.455,-1.935 9.495,-1.935 4.185,0 8.055,1.53 3.87,1.485 7.02,4.05 3.15,2.565 5.4,6.03 2.25,3.42 3.15,7.245 0.18,0.72 0.18,1.62 0.045,0.855 0.045,1.305 z m -15.12,-2.655 q -0.81,-1.665 -2.025,-2.97 -1.035,-1.125 -2.745,-2.025 -1.665,-0.945 -4.095,-0.945 -2.565,0 -4.275,1.08 -1.71,1.035 -2.745,2.295 -1.17,1.485 -1.845,3.33 0.27,-0.18 0.63,-0.36 0.315,-0.135 0.72,-0.27 0.405,-0.135 0.9,-0.135 l 15.48,0 z m -30.19953,2.655 q 0,2.115 -0.855,3.645 -0.855,1.485 -2.16,2.43 -1.305,0.945 -2.88,1.395 -1.53,0.405 -2.97,0.405 l -23.31,0 q 0.495,1.62 1.575,2.88 0.9,1.08 2.43,1.98 1.575,0.9 4.05,0.9 1.305,0 2.475,-0.405 1.215,-0.405 2.385,-0.855 1.17,-0.495 2.385,-0.9 1.26,-0.405 2.7,-0.405 2.115,0 3.69,0.72 1.575,0.675 2.925,2.025 l 3.735,3.735 q -4.275,4.635 -9.45,6.975001 -5.175,2.295 -10.575,2.295 -5.04,0 -9.495,-1.89 -4.455,-1.935001 -7.785,-5.220001 -3.285,-3.33 -5.22,-7.74 -1.935,-4.455 -1.935,-9.45 0,-4.995 1.935,-9.405 1.935,-4.455 5.22,-7.74 3.33,-3.33 7.785,-5.22 4.455,-1.935 9.495,-1.935 4.185,0 8.055,1.53 3.87,1.485 7.02,4.05 3.15,2.565 5.4,6.03 2.25,3.42 3.15,7.245 0.18,0.72 0.18,1.62 0.045,0.855 0.045,1.305 z m -15.12,-2.655 q -0.81,-1.665 -2.025,-2.97 -1.035,-1.125 -2.745,-2.025 -1.665,-0.945 -4.095,-0.945 -2.565,0 -4.275,1.08 -1.71,1.035 -2.745,2.295 -1.17,1.485 -1.845,3.33 0.27,-0.18 0.63,-0.36 0.315,-0.135 0.72,-0.27 0.405,-0.135 0.9,-0.135 l 15.48,0 z m -50.56062,28.800001 0,-33.525001 -6.795,0 0,-8.325 q 0,-1.26 0.18,-2.25 0.18,-1.035 0.81,-1.71 0.675,-0.72 1.98,-1.08 1.305,-0.36 3.6,-0.36 l 0.225,0 0,-3.825 q 0,-3.105 0.945,-5.67 0.99,-2.61 2.79,-4.455 1.845,-1.89 4.41,-2.925 2.61,-1.08 5.85,-1.08 1.35,0 3.24,0.54 1.89,0.54 3.825,1.44 1.98,0.855 3.78,2.025 1.845,1.125 3.105,2.385 l -2.25,3.69 q -1.17,1.98 -2.925,2.79 -1.71,0.81 -4.275,0.81 -0.36,0 -1.17,-0.18 -0.81,-0.225 -1.305,-0.225 -0.9,0 -1.17,0.54 -0.225,0.495 -0.225,1.17 0,0.315 0,0.99 0,0.63 0.045,1.89 l 8.73,0 0,13.815 -8.685,0 0,33.525001 -14.715,0 z" />
    </g>
  </g>
</svg>
